<svg xmlns="http://www.w3.org/2000/svg" viewBox="0 0 418.46 518.66"><defs><style>.cls-1{fill:#050404;}</style></defs><g id="Layer_2" data-name="Layer 2"><g id="Layer_1-2" data-name="Layer 1"><circle class="cls-1" cx="209.23" cy="259.33" r="55.72"/><path class="cls-1" d="M368.47,259.33l50-50-83.71-83.71h0L209.08,0,158.71,50.36l25,25A176.9,176.9,0,0,0,83.35,125.65L0,209l50.33,50.33L0,309.64l209,209L259.4,468.3l-25.06-25.07A176.93,176.93,0,0,0,334.73,393L418,309.67l.05.05.39-.4Zm-97.3,63.12a87.87,87.87,0,0,1-124.26,0L83.77,259.31l63.14-63.14a87.87,87.87,0,0,1,124.26,0l63.14,63.14Z"/></g></g></svg>